<?xml version="1.0" encoding="utf-8"?>
<!-- Generator: Adobe Illustrator 19.1.0, SVG Export Plug-In . SVG Version: 6.00 Build 0)  -->
<svg version="1.1" id="Layer_1" xmlns="http://www.w3.org/2000/svg" xmlns:xlink="http://www.w3.org/1999/xlink" x="0px" y="0px"
	 viewBox="-158.7 372.3 280 44" style="enable-background:new -158.7 372.3 280 44;" xml:space="preserve">
<style type="text/css">
	.st0{fill:#BCBCBC;}
</style>
<image style="overflow:visible;enable-background:new    ;" width="90" height="90" xlink:href="B93BF54F.png"  transform="matrix(0.4565 0 0 0.4565 -153.75 374.1177)">
</image>
<g>
	<path class="st0" d="M-106.3,376.9h3.2c0.7,0,1.3,0.1,1.7,0.2c0.5,0.2,1,0.4,1.3,0.8c0.4,0.4,0.6,0.9,0.8,1.4s0.3,1.3,0.3,2.1
		c0,0.7-0.1,1.3-0.3,1.9c-0.2,0.6-0.5,1.2-1,1.5c-0.3,0.3-0.7,0.5-1.3,0.7c-0.4,0.1-0.9,0.2-1.6,0.2h-3.3L-106.3,376.9L-106.3,376.9
		z M-104.5,378.4v5.8h1.3c0.5,0,0.9,0,1.1-0.1c0.3-0.1,0.5-0.2,0.7-0.4c0.2-0.2,0.4-0.4,0.4-0.9c0.1-0.4,0.2-0.9,0.2-1.6
		s-0.1-1.2-0.2-1.6c-0.1-0.4-0.3-0.6-0.5-0.9c-0.2-0.1-0.4-0.2-0.8-0.3c-0.3-0.1-0.7-0.1-1.4-0.1H-104.5z"/>
	<path class="st0" d="M-93.7,383.7l1.7,0.3c-0.2,0.6-0.5,1.1-1,1.4c-0.4,0.4-1.1,0.4-1.8,0.4c-1.1,0-2-0.4-2.5-1.1
		c-0.4-0.6-0.6-1.3-0.6-2.2c0-1.1,0.3-1.9,0.8-2.5c0.5-0.6,1.3-0.9,2.1-0.9c1,0,1.7,0.4,2.2,1s0.8,1.6,0.8,2.9h-4.2
		c0,0.5,0.2,0.9,0.4,1.2c0.3,0.3,0.6,0.4,1,0.4c0.3,0,0.4-0.1,0.6-0.2C-93.9,384.2-93.7,384.1-93.7,383.7z M-93.6,382
		c0-0.4-0.2-0.9-0.4-1.1c-0.3-0.3-0.5-0.4-0.9-0.4c-0.4,0-0.7,0.2-0.9,0.4c-0.3,0.3-0.4,0.6-0.4,1.1L-93.6,382L-93.6,382z"/>
	<path class="st0" d="M-90.5,379.3h1.6v0.9c0.2-0.4,0.4-0.6,0.8-0.8s0.7-0.3,1.2-0.3c0.7,0,1.3,0.3,1.9,0.9c0.5,0.6,0.8,1.4,0.8,2.4
		c0,1.1-0.3,1.9-0.8,2.5c-0.5,0.6-1.2,0.9-1.9,0.9c-0.4,0-0.7-0.1-1-0.2c-0.3-0.2-0.6-0.4-0.9-0.7v3.2h-1.7
		C-90.5,388.2-90.5,379.3-90.5,379.3z M-88.9,382.5c0,0.7,0.2,1.3,0.4,1.6c0.3,0.4,0.6,0.5,1.1,0.5c0.4,0,0.7-0.2,1-0.4
		c0.3-0.3,0.4-0.8,0.4-1.5c0-0.6-0.2-1.2-0.4-1.5c-0.3-0.4-0.6-0.4-1-0.4c-0.4,0-0.7,0.2-1.1,0.4C-88.7,381.4-88.9,381.8-88.9,382.5
		z"/>
	<path class="st0" d="M-81.7,381.3l-1.5-0.3c0.2-0.6,0.4-1.1,0.9-1.3c0.4-0.3,1.1-0.4,1.9-0.4c0.7,0,1.3,0.1,1.7,0.3
		c0.4,0.2,0.6,0.4,0.8,0.7c0.2,0.3,0.3,0.8,0.3,1.5v2c0,0.5,0,1,0.1,1.3c0.1,0.3,0.2,0.5,0.3,0.9H-79c0-0.1-0.1-0.3-0.2-0.5
		c0-0.1-0.1-0.2-0.1-0.2c-0.3,0.3-0.6,0.4-0.9,0.6c-0.4,0.2-0.7,0.2-1.1,0.2c-0.6,0-1.2-0.2-1.5-0.5c-0.4-0.4-0.5-0.8-0.5-1.3
		c0-0.4,0.1-0.7,0.3-1c0.2-0.3,0.4-0.5,0.7-0.6c0.3-0.2,0.7-0.3,1.3-0.4c0.8-0.2,1.3-0.3,1.6-0.4v-0.2c0-0.4-0.1-0.5-0.3-0.7
		c-0.2-0.2-0.4-0.2-0.9-0.2c-0.3,0-0.5,0.1-0.7,0.2C-81.4,380.8-81.5,381-81.7,381.3z M-79.4,382.6c-0.2,0.1-0.5,0.2-1.1,0.3
		c-0.4,0.1-0.8,0.2-0.9,0.3c-0.2,0.2-0.4,0.4-0.4,0.6c0,0.3,0.1,0.4,0.3,0.6c0.2,0.2,0.4,0.3,0.7,0.3c0.3,0,0.6-0.1,0.9-0.3
		c0.2-0.2,0.4-0.4,0.4-0.5c0-0.2,0.1-0.4,0.1-0.8L-79.4,382.6L-79.4,382.6z"/>
	<path class="st0" d="M-74.4,385.8h-1.7v-6.5h1.6v0.9c0.3-0.4,0.4-0.6,0.7-0.8c0.2-0.2,0.4-0.2,0.7-0.2c0.4,0,0.7,0.1,1.1,0.4
		l-0.5,1.4c-0.3-0.2-0.5-0.3-0.8-0.3c-0.3,0-0.4,0.1-0.6,0.2c-0.2,0.1-0.3,0.4-0.4,0.7s-0.2,1.1-0.2,2.2L-74.4,385.8L-74.4,385.8z"
		/>
	<path class="st0" d="M-68.3,379.3v1.3h-1.2v2.6c0,0.5,0,0.8,0,0.9c0,0.1,0.1,0.2,0.2,0.2c0.1,0.1,0.2,0.1,0.3,0.1
		c0.2,0,0.4-0.1,0.7-0.2l0.2,1.3c-0.4,0.2-0.8,0.3-1.3,0.3c-0.3,0-0.5-0.1-0.8-0.2c-0.3-0.1-0.4-0.3-0.5-0.4
		c-0.1-0.1-0.2-0.4-0.3-0.6c0-0.2-0.1-0.6-0.1-1.2v-2.9H-72v-1.3h0.8v-1.3l1.7-1v2.2H-68.3z"/>
	<path class="st0" d="M-67.3,379.3h1.5v0.9c0.5-0.7,1.3-1,2-1c0.4,0,0.8,0.1,1.1,0.3c0.3,0.2,0.5,0.4,0.7,0.8
		c0.3-0.4,0.6-0.6,0.9-0.8c0.4-0.2,0.7-0.3,1.1-0.3c0.4,0,0.9,0.1,1.2,0.3c0.4,0.2,0.5,0.4,0.7,0.8c0.1,0.3,0.2,0.7,0.2,1.3v4.1
		h-1.7v-3.7c0-0.6-0.1-1.1-0.2-1.3c-0.2-0.3-0.4-0.4-0.7-0.4c-0.3,0-0.4,0.1-0.6,0.2c-0.2,0.2-0.4,0.4-0.4,0.6
		c-0.1,0.3-0.2,0.7-0.2,1.3v3.1h-1.7v-3.5c0-0.6,0-1-0.1-1.2s-0.2-0.4-0.3-0.4c-0.1-0.1-0.3-0.1-0.5-0.1s-0.5,0.1-0.7,0.2
		c-0.2,0.2-0.4,0.4-0.4,0.6c-0.1,0.3-0.2,0.7-0.2,1.3v3.1h-1.7v-6.5H-67.3z"/>
	<path class="st0" d="M-52.4,383.7l1.7,0.3c-0.2,0.6-0.5,1.1-1,1.4c-0.4,0.4-1.1,0.4-1.8,0.4c-1.1,0-2-0.4-2.5-1.1
		c-0.4-0.6-0.6-1.3-0.6-2.2c0-1.1,0.3-1.9,0.8-2.5c0.5-0.6,1.3-0.9,2.1-0.9c1,0,1.7,0.4,2.2,1s0.8,1.6,0.8,2.9H-55
		c0,0.5,0.2,0.9,0.4,1.2c0.3,0.3,0.6,0.4,1,0.4c0.3,0,0.4-0.1,0.6-0.2C-52.6,384.2-52.5,384.1-52.4,383.7z M-52.4,382
		c0-0.4-0.2-0.9-0.4-1.1c-0.3-0.3-0.5-0.4-0.9-0.4c-0.4,0-0.7,0.2-0.9,0.4c-0.3,0.3-0.4,0.6-0.4,1.1L-52.4,382L-52.4,382z"/>
	<path class="st0" d="M-43.4,385.8h-1.7v-3.2c0-0.7,0-1.2-0.1-1.3s-0.2-0.4-0.4-0.4c-0.2-0.1-0.4-0.2-0.6-0.2
		c-0.3,0-0.5,0.1-0.8,0.3s-0.4,0.4-0.4,0.6c-0.1,0.3-0.1,0.7-0.1,1.4v2.9h-1.7v-6.5h1.6v0.9c0.5-0.7,1.3-1.1,2.2-1.1
		c0.4,0,0.7,0.1,1,0.2c0.3,0.2,0.5,0.3,0.7,0.5c0.2,0.2,0.3,0.4,0.4,0.7c0.1,0.3,0.1,0.6,0.1,1.2L-43.4,385.8L-43.4,385.8z"/>
	<path class="st0" d="M-38.8,379.3v1.3H-40v2.6c0,0.5,0,0.8,0,0.9c0,0.1,0.1,0.2,0.2,0.2c0.1,0.1,0.2,0.1,0.3,0.1
		c0.2,0,0.4-0.1,0.7-0.2l0.2,1.3c-0.4,0.2-0.8,0.3-1.3,0.3c-0.3,0-0.5-0.1-0.8-0.2c-0.3-0.1-0.4-0.3-0.5-0.4
		c-0.1-0.1-0.2-0.4-0.3-0.6c0-0.2-0.1-0.6-0.1-1.2v-2.9h-0.8v-1.3h0.8v-1.3l1.7-1v2.2H-38.8z"/>
	<path class="st0" d="M-34.6,382.5c0-0.5,0.2-1.1,0.4-1.6s0.6-0.9,1.2-1.2c0.5-0.3,1.1-0.4,1.7-0.4c1,0,1.8,0.4,2.4,1
		c0.6,0.6,0.9,1.4,0.9,2.4c0,1-0.3,1.8-0.9,2.4c-0.6,0.6-1.4,1-2.3,1c-0.6,0-1.2-0.1-1.7-0.4c-0.5-0.3-0.9-0.6-1.3-1.2
		C-34.4,383.8-34.6,383.2-34.6,382.5z M-32.8,382.5c0,0.6,0.2,1.2,0.4,1.4c0.3,0.3,0.7,0.5,1.1,0.5c0.4,0,0.8-0.2,1.1-0.5
		s0.4-0.8,0.4-1.4s-0.2-1.1-0.4-1.4s-0.6-0.5-1.1-0.5c-0.4,0-0.8,0.2-1.1,0.5S-32.8,381.9-32.8,382.5z"/>
	<path class="st0" d="M-27.3,379.3h0.9v-0.4c0-0.5,0.1-0.9,0.2-1.2c0.1-0.3,0.4-0.4,0.6-0.6c0.3-0.2,0.7-0.3,1.2-0.3
		c0.4,0,1,0.1,1.4,0.2l-0.3,1.2c-0.3-0.1-0.5-0.1-0.8-0.1c-0.3,0-0.4,0.1-0.5,0.2c-0.1,0.1-0.2,0.4-0.2,0.6v0.4h1.3v1.3h-1.2v5.1
		h-1.7v-5.1h-0.9V379.3z"/>
	<path class="st0" d="M-13.4,382.5l1.7,0.5c-0.3,1-0.7,1.7-1.3,2.2c-0.6,0.4-1.4,0.7-2.3,0.7c-1.2,0-2.2-0.4-2.9-1.2
		c-0.7-0.8-1.2-1.9-1.2-3.3s0.4-2.6,1.2-3.4c0.8-0.8,1.8-1.3,3-1.3c1.1,0,2,0.4,2.6,1c0.4,0.4,0.7,0.9,0.9,1.6l-1.8,0.4
		c-0.1-0.4-0.4-0.8-0.6-1.1c-0.4-0.3-0.7-0.4-1.2-0.4c-0.6,0-1.2,0.3-1.6,0.7c-0.4,0.4-0.6,1.3-0.6,2.2c0,1.1,0.2,1.9,0.6,2.4
		c0.4,0.4,0.9,0.7,1.5,0.7c0.4,0,0.9-0.2,1.3-0.4C-13.8,383.8-13.5,383.2-13.4,382.5z"/>
	<path class="st0" d="M-10.5,382.5c0-0.5,0.2-1.1,0.4-1.6c0.3-0.5,0.6-0.9,1.2-1.2c0.5-0.3,1.1-0.4,1.7-0.4c1,0,1.8,0.4,2.4,1
		c0.6,0.6,0.9,1.4,0.9,2.4c0,1-0.3,1.8-0.9,2.4c-0.6,0.6-1.4,1-2.3,1c-0.6,0-1.2-0.1-1.7-0.4c-0.5-0.3-0.9-0.6-1.3-1.2
		C-10.3,383.8-10.5,383.2-10.5,382.5z M-8.7,382.5c0,0.6,0.2,1.2,0.4,1.4c0.3,0.3,0.7,0.5,1.1,0.5c0.4,0,0.8-0.2,1.1-0.5
		s0.4-0.8,0.4-1.4s-0.2-1.1-0.4-1.4s-0.6-0.5-1.1-0.5s-0.8,0.2-1.1,0.5C-8.6,381.5-8.7,381.9-8.7,382.5z"/>
	<path class="st0" d="M-2.7,379.3h1.5v0.9c0.5-0.7,1.3-1,2-1c0.4,0,0.8,0.1,1.1,0.3s0.5,0.4,0.7,0.8c0.3-0.4,0.6-0.6,0.9-0.8
		c0.4-0.2,0.7-0.3,1.1-0.3c0.4,0,0.9,0.1,1.2,0.3c0.4,0.2,0.5,0.4,0.7,0.8c0.1,0.3,0.2,0.7,0.2,1.3v4.1H4.9v-3.7
		c0-0.6-0.1-1.1-0.2-1.3c-0.2-0.3-0.4-0.4-0.7-0.4c-0.3,0-0.4,0.1-0.6,0.2c-0.2,0.2-0.4,0.4-0.4,0.6c-0.1,0.3-0.2,0.7-0.2,1.3v3.1
		H1.1v-3.5c0-0.6,0-1-0.1-1.2s-0.2-0.4-0.3-0.4c-0.1-0.1-0.3-0.1-0.5-0.1s-0.5,0.1-0.7,0.2c-0.2,0.2-0.4,0.4-0.4,0.6
		c-0.1,0.3-0.2,0.7-0.2,1.3v3.1h-1.7v-6.5H-2.7z"/>
	<path class="st0" d="M8.4,379.3H10v0.9c0.2-0.4,0.4-0.6,0.8-0.8c0.4-0.2,0.7-0.3,1.2-0.3c0.7,0,1.3,0.3,1.9,0.9
		c0.5,0.6,0.8,1.4,0.8,2.4c0,1.1-0.3,1.9-0.8,2.5c-0.5,0.6-1.2,0.9-1.9,0.9c-0.4,0-0.7-0.1-1-0.2c-0.3-0.2-0.6-0.4-0.9-0.7v3.2H8.4
		V379.3z M10.1,382.5c0,0.7,0.2,1.3,0.4,1.6c0.3,0.4,0.6,0.5,1.1,0.5c0.4,0,0.7-0.2,1-0.4c0.3-0.3,0.4-0.8,0.4-1.5
		c0-0.6-0.2-1.2-0.4-1.5c-0.3-0.4-0.6-0.4-1-0.4c-0.4,0-0.7,0.2-1.1,0.4C10.2,381.4,10.1,381.8,10.1,382.5z"/>
	<path class="st0" d="M20.3,385.8v-1c-0.3,0.4-0.5,0.6-0.9,0.8c-0.4,0.2-0.8,0.3-1.2,0.3c-0.4,0-0.8-0.1-1.2-0.3
		c-0.4-0.2-0.6-0.4-0.7-0.8c-0.2-0.4-0.3-0.8-0.3-1.4v-4h1.7v3c0,0.9,0,1.4,0.1,1.6s0.2,0.4,0.4,0.4c0.2,0.1,0.4,0.2,0.6,0.2
		c0.3,0,0.5-0.1,0.8-0.3c0.3-0.2,0.4-0.4,0.4-0.6c0.1-0.3,0.1-0.8,0.1-1.7v-2.7h1.7v6.4h-1.6V385.8z"/>
	<path class="st0" d="M26.5,379.3v1.3h-1.2v2.6c0,0.5,0,0.8,0,0.9c0,0.1,0.1,0.2,0.2,0.2c0.1,0.1,0.2,0.1,0.3,0.1
		c0.2,0,0.4-0.1,0.7-0.2l0.2,1.3c-0.4,0.2-0.8,0.3-1.3,0.3c-0.3,0-0.5-0.1-0.8-0.2c-0.3-0.1-0.4-0.3-0.5-0.4
		c-0.1-0.1-0.2-0.4-0.3-0.6c0-0.2-0.1-0.6-0.1-1.2v-2.9h-0.7v-1.3h0.8v-1.3l1.7-1v2.2H26.5z"/>
	<path class="st0" d="M31.4,383.7l1.7,0.3c-0.2,0.6-0.5,1.1-1,1.4c-0.4,0.4-1.1,0.4-1.8,0.4c-1.1,0-2-0.4-2.5-1.1
		c-0.4-0.6-0.6-1.3-0.6-2.2c0-1.1,0.3-1.9,0.8-2.5c0.5-0.6,1.3-0.9,2.1-0.9c1,0,1.7,0.4,2.2,1c0.5,0.6,0.8,1.6,0.8,2.9h-4.2
		c0,0.5,0.2,0.9,0.4,1.2c0.3,0.3,0.6,0.4,1,0.4c0.3,0,0.4-0.1,0.6-0.2C31.1,384.2,31.3,384.1,31.4,383.7z M31.5,382
		c0-0.4-0.2-0.9-0.4-1.1c-0.3-0.3-0.5-0.4-0.9-0.4s-0.7,0.2-0.9,0.4c-0.3,0.3-0.4,0.6-0.4,1.1L31.5,382L31.5,382z"/>
	<path class="st0" d="M36.2,385.8h-1.7v-6.5h1.6v0.9c0.3-0.4,0.5-0.7,0.7-0.8c0.2-0.2,0.4-0.2,0.7-0.2c0.4,0,0.7,0.1,1.1,0.4
		l-0.4,1.4c-0.3-0.2-0.5-0.3-0.8-0.3c-0.3,0-0.4,0.1-0.6,0.2c-0.2,0.1-0.3,0.4-0.4,0.7c-0.1,0.4-0.2,1.1-0.2,2.2L36.2,385.8
		L36.2,385.8z"/>
	<path class="st0" d="M42.8,385.8v-8.9h6.6v1.5h-4.8v2h4.5v1.5h-4.5v2.4h4.9v1.5L42.8,385.8L42.8,385.8z"/>
	<path class="st0" d="M56.9,385.8h-1.7v-3.2c0-0.7,0-1.2-0.1-1.3c-0.1-0.2-0.2-0.4-0.4-0.4c-0.2-0.1-0.4-0.2-0.6-0.2
		s-0.5,0.1-0.8,0.3c-0.3,0.2-0.4,0.4-0.4,0.6c-0.1,0.3-0.1,0.7-0.1,1.4v2.9h-1.7v-6.5h1.6v0.9c0.5-0.7,1.3-1.1,2.2-1.1
		c0.4,0,0.7,0.1,1,0.2c0.3,0.2,0.5,0.3,0.7,0.5c0.2,0.2,0.3,0.4,0.4,0.7c0.1,0.3,0.1,0.6,0.1,1.2L56.9,385.8L56.9,385.8z"/>
	<path class="st0" d="M58.4,386.1l2,0.3c0,0.3,0.1,0.4,0.2,0.4c0.2,0.1,0.4,0.2,0.7,0.2c0.4,0,0.8-0.1,1-0.2
		c0.2-0.1,0.3-0.3,0.4-0.4c0.1-0.2,0.1-0.4,0.1-0.8v-0.9c-0.5,0.7-1.2,1.1-1.9,1.1c-0.9,0-1.5-0.4-2.1-1.1c-0.4-0.5-0.6-1.3-0.6-2.2
		c0-1.1,0.3-1.9,0.8-2.4c0.5-0.5,1.2-0.8,1.9-0.8c0.8,0,1.4,0.4,2,1.1v-0.9h1.6v5.7c0,0.7-0.1,1.3-0.2,1.7c-0.1,0.4-0.3,0.6-0.5,0.9
		c-0.3,0.2-0.5,0.4-0.9,0.5c-0.4,0.1-0.8,0.2-1.4,0.2c-1.1,0-1.9-0.2-2.3-0.5c-0.4-0.4-0.7-0.8-0.7-1.4
		C58.4,386.3,58.4,386.2,58.4,386.1z M59.9,382.5c0,0.7,0.1,1.2,0.4,1.5c0.3,0.4,0.6,0.4,1,0.4c0.4,0,0.8-0.2,1.1-0.4
		c0.3-0.4,0.4-0.8,0.4-1.4s-0.2-1.2-0.4-1.4c-0.3-0.4-0.6-0.4-1.1-0.4c-0.4,0-0.7,0.2-1,0.4C60,381.4,59.9,381.7,59.9,382.5z"/>
	<path class="st0" d="M66.1,378.5v-1.6h1.7v1.6H66.1z M66.1,385.8v-6.5h1.7v6.4L66.1,385.8L66.1,385.8z"/>
	<path class="st0" d="M75.5,385.8h-1.7v-3.2c0-0.7,0-1.2-0.1-1.3c-0.1-0.2-0.2-0.4-0.4-0.4c-0.2-0.1-0.4-0.2-0.6-0.2
		c-0.3,0-0.5,0.1-0.8,0.3c-0.3,0.2-0.4,0.4-0.4,0.6c-0.1,0.3-0.1,0.7-0.1,1.4v2.9h-1.8v-6.5h1.6v0.9c0.5-0.7,1.3-1.1,2.2-1.1
		c0.4,0,0.7,0.1,1,0.2c0.3,0.2,0.5,0.3,0.7,0.5c0.2,0.2,0.3,0.4,0.4,0.7c0.1,0.3,0.1,0.6,0.1,1.2V385.8z"/>
	<path class="st0" d="M80.9,383.7l1.7,0.3c-0.2,0.6-0.5,1.1-1,1.4c-0.4,0.4-1.1,0.4-1.8,0.4c-1.1,0-2-0.4-2.5-1.1
		c-0.4-0.6-0.6-1.3-0.6-2.2c0-1.1,0.3-1.9,0.8-2.5c0.5-0.6,1.3-0.9,2.1-0.9c1,0,1.7,0.4,2.2,1c0.5,0.6,0.8,1.6,0.8,2.9h-4.2
		c0,0.5,0.2,0.9,0.4,1.2c0.3,0.3,0.6,0.4,1,0.4c0.3,0,0.4-0.1,0.6-0.2C80.7,384.2,80.8,384.1,80.9,383.7z M80.9,382
		c0-0.4-0.2-0.9-0.4-1.1c-0.3-0.3-0.5-0.4-0.9-0.4s-0.7,0.2-0.9,0.4c-0.3,0.3-0.4,0.6-0.4,1.1L80.9,382L80.9,382z"/>
	<path class="st0" d="M87.8,383.7l1.7,0.3c-0.2,0.6-0.5,1.1-1,1.4c-0.4,0.4-1.1,0.4-1.8,0.4c-1.1,0-2-0.4-2.5-1.1
		c-0.4-0.6-0.6-1.3-0.6-2.2c0-1.1,0.3-1.9,0.8-2.5c0.5-0.6,1.3-0.9,2.1-0.9c1,0,1.7,0.4,2.2,1s0.8,1.6,0.8,2.9h-4.2
		c0,0.5,0.2,0.9,0.4,1.2c0.3,0.3,0.6,0.4,1,0.4c0.3,0,0.4-0.1,0.6-0.2C87.5,384.2,87.7,384.1,87.8,383.7z M87.9,382
		c0-0.4-0.2-0.9-0.4-1.1c-0.3-0.3-0.5-0.4-0.9-0.4c-0.4,0-0.7,0.2-0.9,0.4c-0.3,0.3-0.4,0.6-0.4,1.1L87.9,382L87.9,382z"/>
	<path class="st0" d="M92.5,385.8h-1.7v-6.5h1.6v0.9c0.3-0.4,0.5-0.7,0.7-0.8c0.2-0.2,0.4-0.2,0.7-0.2c0.4,0,0.7,0.1,1.1,0.4
		l-0.5,1.4c-0.3-0.2-0.5-0.3-0.8-0.3c-0.3,0-0.4,0.1-0.6,0.2c-0.2,0.1-0.3,0.4-0.4,0.7s-0.2,1.1-0.2,2.2L92.5,385.8L92.5,385.8z"/>
	<path class="st0" d="M95.8,378.5v-1.6h1.7v1.6H95.8z M95.8,385.8v-6.5h1.7v6.4L95.8,385.8L95.8,385.8z"/>
	<path class="st0" d="M105,385.8h-1.7v-3.2c0-0.7,0-1.2-0.1-1.3c-0.1-0.2-0.2-0.4-0.4-0.4c-0.2-0.1-0.4-0.2-0.6-0.2
		c-0.3,0-0.5,0.1-0.8,0.3s-0.4,0.4-0.4,0.6c-0.1,0.3-0.1,0.7-0.1,1.4v2.9h-1.7v-6.5h1.6v0.9c0.5-0.7,1.3-1.1,2.2-1.1
		c0.4,0,0.7,0.1,1,0.2c0.3,0.2,0.5,0.3,0.7,0.5c0.2,0.2,0.3,0.4,0.4,0.7c0.1,0.3,0.1,0.6,0.1,1.2L105,385.8L105,385.8z"/>
	<path class="st0" d="M106.5,386.1l2,0.3c0,0.3,0.1,0.4,0.2,0.4c0.2,0.1,0.4,0.2,0.7,0.2c0.4,0,0.8-0.1,1-0.2
		c0.2-0.1,0.3-0.3,0.4-0.4s0.1-0.4,0.1-0.8v-0.9c-0.5,0.7-1.2,1.1-1.9,1.1c-0.9,0-1.5-0.4-2.1-1.1c-0.4-0.5-0.6-1.3-0.6-2.2
		c0-1.1,0.3-1.9,0.8-2.4s1.2-0.8,1.9-0.8c0.8,0,1.4,0.4,2,1.1v-0.9h1.6v5.7c0,0.7-0.1,1.3-0.2,1.7c-0.1,0.4-0.3,0.6-0.5,0.9
		c-0.3,0.2-0.5,0.4-0.9,0.5c-0.4,0.1-0.8,0.2-1.4,0.2c-1.1,0-1.9-0.2-2.3-0.5c-0.4-0.4-0.7-0.8-0.7-1.4
		C106.5,386.3,106.5,386.2,106.5,386.1z M108.1,382.5c0,0.7,0.1,1.2,0.4,1.5s0.6,0.4,1,0.4c0.4,0,0.8-0.2,1.1-0.4
		c0.3-0.4,0.4-0.8,0.4-1.4s-0.2-1.2-0.4-1.4c-0.3-0.4-0.6-0.4-1.1-0.4s-0.7,0.2-1,0.4C108.1,381.4,108.1,381.7,108.1,382.5z"/>
	<path class="st0" d="M-106.3,398.7V391h5.2v0.9h-4.2v2.4h3.6v0.9h-3.6v3.5H-106.3z"/>
	<path class="st0" d="M-96.3,398c-0.4,0.3-0.7,0.5-1,0.6c-0.3,0.1-0.6,0.2-1.1,0.2c-0.6,0-1.1-0.2-1.4-0.4c-0.4-0.3-0.5-0.7-0.5-1.2
		c0-0.3,0.1-0.5,0.2-0.7c0.1-0.2,0.3-0.4,0.4-0.5c0.2-0.1,0.4-0.3,0.7-0.3c0.2-0.1,0.4-0.1,0.8-0.2c0.8-0.1,1.3-0.2,1.7-0.4
		c0-0.1,0-0.2,0-0.3c0-0.4-0.1-0.6-0.3-0.8c-0.3-0.2-0.6-0.4-1.1-0.4c-0.4,0-0.8,0.1-1,0.3s-0.4,0.4-0.4,0.8l-0.9-0.1
		c0.1-0.4,0.2-0.7,0.4-1s0.4-0.4,0.8-0.5c0.4-0.1,0.8-0.2,1.3-0.2s0.9,0.1,1.2,0.2c0.3,0.1,0.5,0.3,0.6,0.4c0.1,0.2,0.3,0.4,0.3,0.6
		c0,0.2,0.1,0.4,0.1,0.9v1.3c0,0.9,0,1.4,0.1,1.7c0.1,0.3,0.1,0.4,0.3,0.6h-1C-96.2,398.5-96.3,398.2-96.3,398z M-96.3,395.9
		c-0.4,0.2-0.9,0.3-1.5,0.4c-0.4,0.1-0.6,0.1-0.8,0.2c-0.2,0.1-0.3,0.2-0.4,0.3c-0.1,0.1-0.2,0.3-0.2,0.4c0,0.3,0.1,0.4,0.3,0.6
		s0.4,0.3,0.8,0.3c0.4,0,0.7-0.1,1-0.3c0.3-0.2,0.4-0.4,0.6-0.6c0.1-0.2,0.2-0.5,0.2-1V395.9z"/>
	<path class="st0" d="M-90.2,396.6l0.9,0.1c-0.1,0.6-0.4,1.2-0.8,1.5c-0.4,0.4-0.9,0.5-1.5,0.5c-0.8,0-1.3-0.3-1.9-0.7
		c-0.5-0.4-0.7-1.3-0.7-2.2c0-0.6,0.1-1.2,0.3-1.6c0.2-0.4,0.5-0.8,0.9-1c0.4-0.2,0.9-0.4,1.3-0.4c0.6,0,1.1,0.2,1.5,0.4
		c0.4,0.3,0.6,0.7,0.7,1.3l-0.9,0.2c-0.1-0.4-0.3-0.6-0.4-0.8c-0.2-0.2-0.4-0.4-0.7-0.4c-0.4,0-0.9,0.2-1.2,0.5
		c-0.3,0.4-0.4,0.9-0.4,1.6s0.2,1.3,0.4,1.6c0.3,0.4,0.6,0.5,1.2,0.5c0.4,0,0.7-0.1,0.9-0.4C-90.5,397.4-90.3,397.1-90.2,396.6z"/>
	<path class="st0" d="M-84.9,398.7v-0.8c-0.4,0.6-1,1-1.8,1c-0.4,0-0.6-0.1-0.9-0.2c-0.3-0.1-0.5-0.3-0.6-0.4s-0.3-0.4-0.3-0.7
		c0-0.2-0.1-0.4-0.1-0.9v-3.5h1v3.1c0,0.5,0,0.8,0.1,1c0.1,0.3,0.2,0.4,0.4,0.6c0.2,0.2,0.4,0.2,0.7,0.2c0.3,0,0.5-0.1,0.8-0.2
		c0.3-0.1,0.4-0.4,0.5-0.6c0.1-0.3,0.2-0.6,0.2-1.1v-3h1v5.6L-84.9,398.7L-84.9,398.7z"/>
	<path class="st0" d="M-82.5,398.7V391h1v7.7H-82.5z"/>
	<path class="st0" d="M-78.1,397.8l0.2,0.8c-0.3,0.1-0.5,0.1-0.7,0.1c-0.4,0-0.6-0.1-0.8-0.2c-0.2-0.1-0.4-0.3-0.4-0.4
		s-0.1-0.5-0.1-1.1v-3.2h-0.7V393h0.7v-1.3l0.9-0.5v2h1v0.7h-1v3.2c0,0.3,0,0.4,0.1,0.5c0.1,0.1,0.1,0.2,0.2,0.2s0.2,0.1,0.4,0.1
		C-78.4,397.9-78.2,397.9-78.1,397.8z"/>
	<path class="st0" d="M-77.2,400.9l-0.1-0.9c0.2,0.1,0.4,0.1,0.5,0.1s0.4,0,0.5-0.1c0.2-0.1,0.3-0.2,0.3-0.3
		c0.1-0.1,0.2-0.4,0.3-0.7c0-0.1,0.1-0.1,0.1-0.3l-2.1-5.6h1l1.2,3.2c0.2,0.4,0.3,0.8,0.4,1.3c0.1-0.4,0.3-0.9,0.4-1.3l1.2-3.2h1
		l-2.2,5.7c-0.3,0.6-0.4,1.1-0.5,1.3c-0.2,0.3-0.4,0.5-0.5,0.7c-0.2,0.2-0.5,0.2-0.8,0.2C-76.8,400.9-77,400.9-77.2,400.9z"/>
	<path class="st0" d="M-69.1,395.9c0-1.1,0.3-1.8,0.9-2.3c0.4-0.4,1.1-0.6,1.8-0.6c0.8,0,1.4,0.3,1.9,0.7c0.4,0.4,0.7,1.2,0.7,2.1
		c0,0.7-0.1,1.3-0.4,1.7c-0.3,0.4-0.5,0.7-0.9,1c-0.4,0.3-0.9,0.4-1.3,0.4c-0.8,0-1.4-0.3-1.9-0.7
		C-68.8,397.6-69.1,396.8-69.1,395.9z M-68.2,395.9c0,0.7,0.2,1.3,0.4,1.6c0.3,0.4,0.7,0.5,1.2,0.5c0.4,0,0.9-0.2,1.2-0.5
		c0.3-0.4,0.4-0.9,0.4-1.6s-0.2-1.3-0.4-1.5c-0.3-0.3-0.6-0.6-1.2-0.6c-0.4,0-0.9,0.2-1.2,0.5C-68,394.7-68.2,395.2-68.2,395.9z"/>
	<path class="st0" d="M-62.6,398.7v-4.8h-0.8v-0.7h0.8v-0.6c0-0.4,0-0.6,0.1-0.8c0.1-0.3,0.3-0.4,0.4-0.6c0.2-0.2,0.5-0.3,1-0.3
		c0.3,0,0.5,0,0.9,0.1l-0.2,0.8c-0.2,0-0.4-0.1-0.5-0.1c-0.3,0-0.4,0.1-0.6,0.2c-0.2,0.1-0.2,0.4-0.2,0.7v0.5h1.1v0.7h-1.1v4.8
		L-62.6,398.7L-62.6,398.7z"/>
	<path class="st0" d="M-56.7,398.7V391h5.6v0.9h-4.6v2.3h4.3v0.9h-4.3v2.6h4.8v0.9L-56.7,398.7L-56.7,398.7z"/>
	<path class="st0" d="M-49.6,398.7v-5.6h0.8v0.8c0.4-0.6,1-0.9,1.8-0.9c0.4,0,0.6,0.1,0.9,0.2c0.3,0.1,0.4,0.3,0.6,0.4
		c0.2,0.2,0.3,0.4,0.3,0.7c0,0.2,0.1,0.4,0.1,0.9v3.4h-1v-3.4c0-0.4,0-0.7-0.1-0.9c-0.1-0.2-0.2-0.4-0.4-0.4
		c-0.2-0.1-0.4-0.2-0.6-0.2c-0.4,0-0.7,0.1-1.1,0.4c-0.4,0.3-0.4,0.7-0.4,1.4v3.1L-49.6,398.7L-49.6,398.7z"/>
	<path class="st0" d="M-43.8,399.1l0.9,0.2c0,0.3,0.2,0.4,0.4,0.6c0.3,0.2,0.5,0.3,1,0.3s0.8-0.1,1-0.3s0.4-0.4,0.4-0.7
		c0.1-0.2,0.1-0.6,0.1-1.3c-0.4,0.4-0.9,0.7-1.5,0.7c-0.8,0-1.3-0.3-1.8-0.8c-0.4-0.5-0.6-1.3-0.6-2c0-0.5,0.1-1,0.3-1.4
		c0.2-0.4,0.4-0.8,0.8-1.1c0.4-0.3,0.8-0.4,1.3-0.4c0.6,0,1.2,0.3,1.6,0.8v-0.7h0.9v4.8c0,0.9-0.1,1.5-0.3,1.9
		c-0.2,0.4-0.4,0.6-0.8,0.9c-0.4,0.3-0.9,0.4-1.4,0.4c-0.6,0-1.2-0.2-1.6-0.4C-43.7,400.4-43.8,399.8-43.8,399.1z M-43,395.8
		c0,0.7,0.2,1.3,0.4,1.6s0.6,0.5,1.1,0.5c0.4,0,0.8-0.2,1.1-0.5c0.3-0.4,0.4-0.9,0.4-1.6s-0.2-1.2-0.4-1.5c-0.3-0.4-0.6-0.5-1.1-0.5
		c-0.4,0-0.8,0.2-1.1,0.5C-42.8,394.7-43,395.1-43,395.8z"/>
	<path class="st0" d="M-37.6,392.1V391h1v1.1H-37.6z M-37.6,398.7v-5.6h1v5.6H-37.6z"/>
	<path class="st0" d="M-35.2,398.7v-5.6h0.8v0.8c0.4-0.6,1-0.9,1.8-0.9c0.4,0,0.6,0.1,0.9,0.2c0.3,0.1,0.4,0.3,0.6,0.4
		s0.3,0.4,0.3,0.7c0,0.2,0.1,0.4,0.1,0.9v3.4h-1v-3.4c0-0.4,0-0.7-0.1-0.9s-0.2-0.4-0.4-0.4c-0.2-0.1-0.4-0.2-0.6-0.2
		c-0.4,0-0.7,0.1-1.1,0.4c-0.4,0.3-0.4,0.7-0.4,1.4v3.1L-35.2,398.7L-35.2,398.7z"/>
	<path class="st0" d="M-25.4,396.9l1,0.1c-0.2,0.5-0.4,1-0.9,1.3s-1,0.4-1.6,0.4c-0.8,0-1.4-0.3-2-0.7c-0.5-0.4-0.7-1.2-0.7-2.2
		c0-0.9,0.3-1.7,0.7-2.2c0.4-0.4,1.1-0.8,1.9-0.8c0.7,0,1.3,0.3,1.8,0.7s0.7,1.3,0.7,2.2c0,0.1,0,0.2,0,0.3h-4.1
		c0,0.6,0.2,1.1,0.5,1.4c0.4,0.4,0.7,0.4,1.2,0.4c0.4,0,0.6-0.1,0.9-0.3C-25.8,397.5-25.6,397.3-25.4,396.9z M-28.6,395.4h3.1
		c0-0.4-0.2-0.8-0.4-1.1c-0.3-0.4-0.7-0.5-1.2-0.5s-0.8,0.2-1.1,0.4S-28.5,394.8-28.6,395.4z"/>
	<path class="st0" d="M-19.4,396.9l1,0.1c-0.2,0.5-0.4,1-0.9,1.3c-0.4,0.4-1,0.4-1.6,0.4c-0.8,0-1.4-0.3-2-0.7
		c-0.5-0.4-0.7-1.2-0.7-2.2c0-0.9,0.3-1.7,0.7-2.2c0.4-0.4,1.1-0.8,1.9-0.8c0.7,0,1.3,0.3,1.8,0.7c0.4,0.4,0.7,1.3,0.7,2.2
		c0,0.1,0,0.2,0,0.3h-4.1c0,0.6,0.2,1.1,0.5,1.4s0.7,0.4,1.2,0.4c0.4,0,0.6-0.1,0.9-0.3S-19.6,397.3-19.4,396.9z M-22.6,395.4h3.1
		c0-0.4-0.2-0.8-0.4-1.1c-0.3-0.4-0.7-0.5-1.2-0.5c-0.4,0-0.8,0.2-1.1,0.4S-22.6,394.8-22.6,395.4z"/>
	<path class="st0" d="M-17.3,398.7v-5.6h0.8v0.8c0.2-0.4,0.4-0.6,0.6-0.8c0.2-0.2,0.4-0.2,0.6-0.2c0.4,0,0.6,0.1,1,0.3l-0.4,0.9
		c-0.3-0.2-0.4-0.2-0.7-0.2c-0.2,0-0.4,0.1-0.5,0.2c-0.2,0.1-0.3,0.3-0.4,0.5c-0.1,0.4-0.2,0.7-0.2,1.1v3
		C-16.4,398.7-17.3,398.7-17.3,398.7z"/>
	<path class="st0" d="M-13.7,392.1V391h1v1.1H-13.7z M-13.7,398.7v-5.6h1v5.6H-13.7z"/>
	<path class="st0" d="M-11.2,398.7v-5.6h0.8v0.8c0.4-0.6,1-0.9,1.8-0.9c0.4,0,0.6,0.1,0.9,0.2c0.3,0.1,0.4,0.3,0.6,0.4
		c0.2,0.2,0.3,0.4,0.3,0.7c0,0.2,0.1,0.4,0.1,0.9v3.4h-0.9v-3.4c0-0.4,0-0.7-0.1-0.9s-0.2-0.4-0.4-0.4c-0.2-0.1-0.4-0.2-0.6-0.2
		c-0.4,0-0.7,0.1-1.1,0.4c-0.4,0.3-0.4,0.7-0.4,1.4v3.1L-11.2,398.7L-11.2,398.7z"/>
	<path class="st0" d="M-5.5,399.1l0.9,0.2c0,0.3,0.2,0.4,0.4,0.6c0.3,0.2,0.5,0.3,1,0.3s0.8-0.1,1-0.3s0.4-0.4,0.4-0.7
		c0.1-0.2,0.1-0.6,0.1-1.3c-0.4,0.4-0.9,0.7-1.5,0.7c-0.8,0-1.3-0.3-1.8-0.8s-0.6-1.3-0.6-2c0-0.5,0.1-1,0.3-1.4
		c0.2-0.4,0.4-0.8,0.8-1.1c0.4-0.3,0.8-0.4,1.3-0.4c0.6,0,1.2,0.3,1.6,0.8v-0.7h0.9v4.8c0,0.9-0.1,1.5-0.3,1.9s-0.4,0.6-0.8,0.9
		c-0.4,0.3-0.9,0.4-1.4,0.4c-0.6,0-1.2-0.2-1.6-0.4C-5.4,400.4-5.5,399.8-5.5,399.1z M-4.7,395.8c0,0.7,0.2,1.3,0.4,1.6
		s0.6,0.5,1.1,0.5s0.8-0.2,1.1-0.5s0.4-0.9,0.4-1.6s-0.2-1.2-0.4-1.5c-0.3-0.4-0.6-0.5-1.1-0.5s-0.8,0.2-1.1,0.5
		S-4.7,395.1-4.7,395.8z"/>
	<path class="st0" d="M-101.3,403.9h1v4.5c0,0.8-0.1,1.3-0.3,1.9s-0.4,0.8-1,1.1c-0.5,0.3-1.1,0.4-1.8,0.4c-0.7,0-1.3-0.1-1.8-0.4
		s-0.8-0.6-1-1.1c-0.2-0.4-0.3-1.2-0.3-2v-4.5h1v4.5c0,0.6,0.1,1.2,0.2,1.4c0.1,0.3,0.4,0.5,0.6,0.7s0.7,0.3,1.1,0.3
		c0.7,0,1.3-0.2,1.6-0.5s0.4-1,0.4-2v-4.4H-101.3z"/>
	<path class="st0" d="M-98.7,411.6v-5.6h0.8v0.8c0.4-0.6,1-0.9,1.8-0.9c0.4,0,0.6,0.1,0.9,0.2c0.3,0.1,0.4,0.3,0.6,0.4
		s0.3,0.4,0.3,0.7c0,0.2,0.1,0.4,0.1,0.9v3.4h-1v-3.4c0-0.4,0-0.7-0.1-0.9s-0.2-0.4-0.4-0.4c-0.2-0.1-0.4-0.2-0.6-0.2
		c-0.4,0-0.7,0.1-1.1,0.4c-0.4,0.3-0.4,0.7-0.4,1.4v3.1L-98.7,411.6L-98.7,411.6z"/>
	<path class="st0" d="M-92.8,405v-1.1h1v1.1H-92.8z M-92.8,411.6v-5.6h1v5.6H-92.8z"/>
	<path class="st0" d="M-88.8,411.6l-2.2-5.6h1l1.2,3.3c0.1,0.4,0.3,0.7,0.4,1.2c0.1-0.3,0.2-0.6,0.4-1.1l1.3-3.4h1.1l-2.2,5.6H-88.8
		z"/>
	<path class="st0" d="M-81.1,409.8l1,0.1c-0.2,0.5-0.4,1-0.9,1.3c-0.4,0.4-1,0.4-1.6,0.4c-0.8,0-1.4-0.3-2-0.7
		c-0.5-0.4-0.7-1.2-0.7-2.2c0-0.9,0.3-1.7,0.7-2.2c0.4-0.4,1.1-0.8,1.9-0.8c0.7,0,1.3,0.3,1.8,0.7c0.4,0.4,0.7,1.3,0.7,2.2
		c0,0.1,0,0.2,0,0.3h-4.1c0,0.6,0.2,1.1,0.5,1.4c0.4,0.4,0.7,0.4,1.2,0.4c0.4,0,0.6-0.1,0.9-0.3C-81.4,410.5-81.3,410.2-81.1,409.8z
		 M-84.2,408.3h3.1c0-0.4-0.2-0.8-0.4-1.1c-0.3-0.4-0.7-0.5-1.2-0.5s-0.8,0.2-1.1,0.4C-84,407.4-84.2,407.8-84.2,408.3z"/>
	<path class="st0" d="M-78.9,411.6v-5.6h0.8v0.8c0.2-0.4,0.4-0.6,0.6-0.8s0.4-0.2,0.6-0.2c0.4,0,0.6,0.1,1,0.3l-0.4,0.9
		c-0.3-0.2-0.4-0.2-0.7-0.2c-0.2,0-0.4,0.1-0.5,0.2c-0.2,0.1-0.3,0.3-0.4,0.5c-0.1,0.4-0.2,0.7-0.2,1.1v3
		C-78,411.6-78.9,411.6-78.9,411.6z"/>
	<path class="st0" d="M-75.7,409.9l0.9-0.2c0.1,0.4,0.2,0.6,0.4,0.9c0.3,0.3,0.5,0.3,1,0.3c0.4,0,0.7-0.1,1-0.3
		c0.3-0.2,0.4-0.4,0.4-0.6c0-0.2-0.1-0.4-0.3-0.5c-0.1-0.1-0.4-0.2-1-0.4c-0.7-0.2-1.2-0.4-1.4-0.4c-0.3-0.1-0.4-0.3-0.6-0.5
		s-0.2-0.4-0.2-0.7c0-0.3,0.1-0.4,0.2-0.7c0.1-0.3,0.3-0.4,0.4-0.5c0.2-0.1,0.4-0.2,0.6-0.3c0.3-0.1,0.5-0.1,0.8-0.1
		c0.4,0,0.8,0.1,1.2,0.2c0.4,0.1,0.5,0.3,0.7,0.5c0.2,0.3,0.3,0.5,0.4,0.9l-0.9,0.1c0-0.3-0.2-0.5-0.4-0.7c-0.2-0.2-0.4-0.3-0.9-0.3
		c-0.4,0-0.7,0.1-0.9,0.2c-0.2,0.1-0.3,0.3-0.3,0.5c0,0.1,0,0.3,0.1,0.4s0.2,0.2,0.4,0.3c0.1,0,0.4,0.1,0.8,0.3
		c0.6,0.2,1.2,0.4,1.4,0.4c0.3,0.1,0.4,0.3,0.6,0.5c0.2,0.3,0.3,0.4,0.3,0.8c0,0.4-0.1,0.6-0.3,0.9c-0.2,0.3-0.4,0.5-0.8,0.6
		c-0.4,0.1-0.9,0.3-1.3,0.3c-0.7,0-1.3-0.2-1.6-0.4C-75.3,411-75.6,410.5-75.7,409.9z"/>
	<path class="st0" d="M-70,405v-1.1h1v1.1H-70z M-70,411.6v-5.6h1v5.6H-70z"/>
	<path class="st0" d="M-65.6,410.7l0.2,0.8c-0.3,0.1-0.5,0.1-0.7,0.1c-0.4,0-0.6-0.1-0.8-0.2c-0.2-0.1-0.4-0.3-0.4-0.4
		c0-0.2-0.1-0.5-0.1-1.1v-3.2h-0.7V406h0.7v-1.3l0.9-0.5v2h1v0.7h-1v3.2c0,0.3,0,0.4,0.1,0.5c0.1,0.1,0.1,0.2,0.2,0.2
		s0.2,0.1,0.4,0.1C-65.8,410.8-65.6,410.8-65.6,410.7z"/>
	<path class="st0" d="M-64.7,413.8l-0.1-0.9c0.2,0.1,0.4,0.1,0.5,0.1s0.4,0,0.5-0.1c0.2-0.1,0.3-0.2,0.3-0.3
		c0.1-0.1,0.2-0.4,0.3-0.7c0-0.1,0.1-0.1,0.1-0.3l-2.2-5.6h1l1.2,3.2c0.2,0.4,0.3,0.8,0.4,1.3c0.1-0.4,0.3-0.9,0.4-1.3l1.2-3.2h1
		l-2.2,5.7c-0.3,0.6-0.4,1.1-0.5,1.3c-0.2,0.3-0.4,0.5-0.5,0.7c-0.2,0.2-0.4,0.2-0.8,0.2C-64.2,413.9-64.4,413.9-64.7,413.8z"/>
	<path class="st0" d="M-56.6,408.8c0-1.1,0.3-1.8,0.9-2.3c0.4-0.4,1.1-0.6,1.8-0.6c0.8,0,1.4,0.3,1.9,0.7c0.4,0.4,0.7,1.2,0.7,2.1
		c0,0.7-0.1,1.3-0.4,1.7c-0.3,0.4-0.5,0.7-0.9,1c-0.4,0.3-0.9,0.4-1.3,0.4c-0.8,0-1.4-0.3-1.9-0.7
		C-56.2,410.5-56.6,409.7-56.6,408.8z M-55.6,408.8c0,0.7,0.2,1.3,0.4,1.6s0.7,0.5,1.2,0.5c0.4,0,0.9-0.2,1.2-0.5s0.4-0.9,0.4-1.6
		s-0.2-1.3-0.4-1.5c-0.3-0.3-0.7-0.5-1.2-0.5c-0.4,0-0.9,0.2-1.2,0.5S-55.6,408.1-55.6,408.8z"/>
	<path class="st0" d="M-50,411.6v-4.8h-0.8v-0.7h0.8v-0.6c0-0.4,0-0.6,0.1-0.8c0.1-0.3,0.3-0.4,0.4-0.6c0.2-0.2,0.5-0.3,1-0.3
		c0.3,0,0.5,0,0.9,0.1l-0.2,0.8c-0.2,0-0.4-0.1-0.5-0.1c-0.3,0-0.4,0.1-0.6,0.2c-0.2,0.1-0.2,0.4-0.2,0.7v0.5h1.1v0.7h-1.1v4.8
		L-50,411.6L-50,411.6z"/>
	<path class="st0" d="M-44.1,411.6v-7.7h2.9c0.5,0,0.9,0,1.2,0.1c0.4,0.1,0.7,0.2,1,0.4s0.4,0.4,0.6,0.7c0.2,0.3,0.3,0.6,0.3,1.1
		c0,0.6-0.2,1.2-0.6,1.7c-0.4,0.5-1.2,0.7-2.2,0.7h-2v3.1L-44.1,411.6L-44.1,411.6z M-43.1,407.6h2c0.6,0,1.2-0.1,1.4-0.4
		c0.3-0.3,0.4-0.6,0.4-1.1c0-0.4-0.1-0.6-0.3-0.8c-0.2-0.2-0.4-0.4-0.6-0.4c-0.2-0.1-0.4-0.1-1-0.1h-2
		C-43.1,404.8-43.1,407.6-43.1,407.6z"/>
	<path class="st0" d="M-33.2,409.8l1,0.1c-0.2,0.5-0.4,1-0.9,1.3s-1,0.4-1.6,0.4c-0.8,0-1.4-0.3-2-0.7c-0.5-0.4-0.7-1.2-0.7-2.2
		c0-0.9,0.3-1.7,0.7-2.2c0.4-0.4,1.1-0.8,1.9-0.8c0.7,0,1.3,0.3,1.8,0.7c0.4,0.4,0.7,1.3,0.7,2.2c0,0.1,0,0.2,0,0.3h-4
		c0,0.6,0.2,1.1,0.5,1.4c0.4,0.4,0.7,0.4,1.2,0.4c0.4,0,0.6-0.1,0.9-0.3S-33.3,410.2-33.2,409.8z M-36.4,408.3h3.1
		c0-0.4-0.2-0.8-0.4-1.1c-0.3-0.4-0.7-0.5-1.2-0.5s-0.8,0.2-1.1,0.4C-36.1,407.4-36.3,407.8-36.4,408.3z"/>
	<path class="st0" d="M-31.1,411.6v-5.6h0.8v0.8c0.2-0.4,0.4-0.6,0.6-0.8s0.4-0.2,0.6-0.2c0.4,0,0.6,0.1,1,0.3l-0.4,0.9
		c-0.3-0.2-0.4-0.2-0.7-0.2c-0.2,0-0.4,0.1-0.5,0.2c-0.2,0.1-0.3,0.3-0.4,0.5c-0.1,0.4-0.2,0.7-0.2,1.1v3
		C-30.2,411.6-31.1,411.6-31.1,411.6z"/>
	<path class="st0" d="M-23.8,410.9c-0.4,0.3-0.7,0.5-1,0.6c-0.3,0.1-0.6,0.2-1.1,0.2c-0.6,0-1.1-0.2-1.4-0.4
		c-0.4-0.3-0.5-0.7-0.5-1.2c0-0.3,0.1-0.5,0.2-0.7s0.3-0.4,0.4-0.5c0.2-0.1,0.4-0.3,0.7-0.3c0.2-0.1,0.4-0.1,0.8-0.2
		c0.8-0.1,1.3-0.2,1.7-0.4c0-0.1,0-0.2,0-0.3c0-0.4-0.1-0.6-0.3-0.8c-0.3-0.2-0.6-0.4-1.1-0.4c-0.4,0-0.8,0.1-1,0.3
		s-0.4,0.4-0.4,0.8l-0.9-0.1c0.1-0.4,0.2-0.7,0.4-1c0.3-0.3,0.4-0.4,0.8-0.5c0.4-0.1,0.8-0.2,1.3-0.2c0.4,0,0.9,0.1,1.2,0.2
		c0.3,0.1,0.5,0.3,0.6,0.4c0.1,0.2,0.3,0.4,0.3,0.6c0,0.2,0.1,0.4,0.1,0.9v1.3c0,0.9,0,1.4,0.1,1.7c0.1,0.3,0.1,0.4,0.3,0.6h-1
		C-23.7,411.4-23.8,411.2-23.8,410.9z M-23.9,408.8c-0.4,0.2-0.9,0.3-1.5,0.4c-0.4,0.1-0.6,0.1-0.8,0.2c-0.2,0.1-0.3,0.2-0.4,0.3
		c-0.1,0.1-0.1,0.3-0.1,0.4c0,0.3,0.1,0.4,0.3,0.6s0.4,0.3,0.8,0.3s0.7-0.1,1-0.3c0.3-0.2,0.4-0.4,0.6-0.6c0.1-0.2,0.2-0.5,0.2-1
		L-23.9,408.8L-23.9,408.8z"/>
	<path class="st0" d="M-17.9,411.6v-0.7c-0.4,0.5-0.9,0.8-1.5,0.8c-0.4,0-0.9-0.1-1.3-0.4c-0.4-0.3-0.6-0.6-0.9-1
		c-0.3-0.4-0.3-1-0.3-1.5s0.1-1.1,0.3-1.5c0.2-0.4,0.4-0.8,0.8-1.1c0.4-0.3,0.8-0.4,1.3-0.4c0.4,0,0.6,0.1,0.9,0.2
		c0.3,0.1,0.4,0.4,0.6,0.5v-2.8h0.9v7.7L-17.9,411.6L-17.9,411.6z M-20.8,408.8c0,0.7,0.2,1.3,0.4,1.6s0.6,0.5,1.1,0.5
		c0.4,0,0.8-0.2,1.1-0.5s0.4-0.9,0.4-1.5c0-0.8-0.2-1.3-0.4-1.7s-0.6-0.5-1.1-0.5c-0.4,0-0.8,0.2-1.1,0.5S-20.8,408-20.8,408.8z"/>
	<path class="st0" d="M-11.7,409.8l1,0.1c-0.2,0.5-0.4,1-0.9,1.3c-0.4,0.4-1,0.4-1.6,0.4c-0.8,0-1.4-0.3-2-0.7
		c-0.5-0.4-0.7-1.2-0.7-2.2c0-0.9,0.3-1.7,0.7-2.2c0.4-0.4,1.1-0.8,1.9-0.8c0.7,0,1.3,0.3,1.8,0.7c0.4,0.4,0.7,1.3,0.7,2.2
		c0,0.1,0,0.2,0,0.3h-4c0,0.6,0.2,1.1,0.5,1.4c0.4,0.4,0.7,0.4,1.2,0.4c0.4,0,0.6-0.1,0.9-0.3S-11.8,410.2-11.7,409.8z M-14.7,408.3
		h3.1c0-0.4-0.2-0.8-0.4-1.1c-0.3-0.4-0.7-0.5-1.2-0.5c-0.4,0-0.8,0.2-1.1,0.4C-14.5,407.4-14.7,407.8-14.7,408.3z"/>
	<path class="st0" d="M-9.5,411.6v-5.6h0.8v0.8c0.4-0.6,1-0.9,1.8-0.9c0.4,0,0.6,0.1,0.9,0.2c0.3,0.1,0.4,0.3,0.6,0.4
		c0.2,0.2,0.3,0.4,0.3,0.7c0,0.2,0.1,0.4,0.1,0.9v3.4h-1v-3.4c0-0.4,0-0.7-0.1-0.9c-0.1-0.2-0.2-0.4-0.4-0.4
		c-0.2-0.1-0.4-0.2-0.6-0.2c-0.4,0-0.7,0.1-1.1,0.4c-0.4,0.3-0.4,0.7-0.4,1.4v3.1L-9.5,411.6L-9.5,411.6z"/>
	<path class="st0" d="M-3.5,405v-1.1h1v1.1H-3.5z M-3.5,411.6v-5.6h1v5.6H-3.5z"/>
	<path class="st0" d="M-1.2,413.8l-0.1-0.9c0.2,0.1,0.4,0.1,0.5,0.1c0.2,0,0.4,0,0.5-0.1c0.2-0.1,0.3-0.2,0.3-0.3
		c0.1-0.1,0.2-0.4,0.3-0.7c0-0.1,0.1-0.1,0.1-0.3l-2.2-5.6h1l1.2,3.2c0.2,0.4,0.3,0.8,0.4,1.3c0.1-0.4,0.3-0.9,0.4-1.3l1.2-3.2h1
		l-2.1,5.7c-0.3,0.6-0.4,1.1-0.5,1.3c-0.2,0.3-0.4,0.5-0.5,0.7s-0.4,0.2-0.8,0.2C-0.7,413.9-0.9,413.9-1.2,413.8z"/>
	<path class="st0" d="M7.9,410.9c-0.4,0.3-0.7,0.5-1,0.6c-0.3,0.1-0.6,0.2-1.1,0.2c-0.6,0-1.1-0.2-1.4-0.4c-0.4-0.3-0.5-0.7-0.5-1.2
		c0-0.3,0.1-0.5,0.2-0.7c0.1-0.2,0.3-0.4,0.4-0.5c0.2-0.1,0.4-0.3,0.7-0.3c0.2-0.1,0.4-0.1,0.8-0.2c0.8-0.1,1.3-0.2,1.7-0.4
		c0-0.1,0-0.2,0-0.3c0-0.4-0.1-0.6-0.3-0.8c-0.3-0.2-0.6-0.4-1.1-0.4s-0.8,0.1-1,0.3s-0.4,0.4-0.4,0.8L4,407.6
		c0.1-0.4,0.2-0.7,0.4-1c0.3-0.3,0.4-0.4,0.8-0.5c0.4-0.1,0.8-0.2,1.3-0.2s0.9,0.1,1.2,0.2c0.3,0.1,0.5,0.3,0.6,0.4s0.3,0.4,0.3,0.6
		c0,0.2,0.1,0.4,0.1,0.9v1.3c0,0.9,0,1.4,0.1,1.7c0.1,0.3,0.1,0.4,0.3,0.6h-1C8,411.4,8,411.2,7.9,410.9z M7.9,408.8
		c-0.4,0.2-0.9,0.3-1.5,0.4c-0.4,0.1-0.6,0.1-0.8,0.2c-0.2,0.1-0.3,0.2-0.4,0.3c-0.1,0.1-0.1,0.3-0.1,0.4c0,0.3,0.1,0.4,0.3,0.6
		s0.4,0.3,0.8,0.3c0.4,0,0.7-0.1,1-0.3s0.4-0.4,0.6-0.6c0.1-0.2,0.2-0.5,0.2-1L7.9,408.8L7.9,408.8z"/>
</g>
</svg>
